<?xml version="1.0" encoding="utf-8"?>
<!-- Generator: Adobe Illustrator 19.2.1, SVG Export Plug-In . SVG Version: 6.00 Build 0)  -->
<svg version="1.1" id="Layer_1" xmlns="http://www.w3.org/2000/svg" xmlns:xlink="http://www.w3.org/1999/xlink" x="0px" y="0px"
	 viewBox="0 0 49.8 11.4" enable-background="new 0 0 49.8 11.4" xml:space="preserve">
<g>
	<path fill="#FFFFFF" d="M8.6,1.3H1.6c-0.1,0-0.1,0-0.2,0.1C1.3,1.4,1.3,1.5,1.3,1.6v5.5c0,0.1,0,0.1,0.1,0.2
		c0.1,0.1,0.1,0.1,0.2,0.1h7.1v1.3H1.6c-0.4,0-0.8-0.2-1.1-0.5C0.2,7.9,0,7.5,0,7.1V1.6c0-0.4,0.2-0.8,0.5-1.1C0.8,0.2,1.1,0,1.6,0
		h7.1V1.3z"/>
	<path fill="#FFFFFF" d="M15.8,1.7c0.4,0,0.8,0.2,1.1,0.5c0.3,0.3,0.5,0.7,0.5,1.1v5.4h-5.5c-0.4,0-0.8-0.2-1.1-0.5
		c-0.3-0.3-0.5-0.7-0.5-1.1V4.5h5.8V3.2c0-0.1,0-0.1-0.1-0.2C15.9,3,15.9,3,15.8,3h-5.5V1.7H15.8z M16.1,7.3V5.8h-4.5v1.3
		c0,0.1,0,0.1,0.1,0.2c0.1,0.1,0.1,0.1,0.2,0.1H16.1z"/>
	<path fill="#FFFFFF" d="M20.4,1.7h3.9V3h-3.9c-0.1,0-0.1,0-0.2,0.1c-0.1,0.1-0.1,0.1-0.1,0.2v5.4h-1.3V7.1V3.2
		c0-0.4,0.2-0.8,0.5-1.1C19.6,1.8,20,1.7,20.4,1.7z"/>
	<path fill="#FFFFFF" d="M31,1.7c0.4,0,0.8,0.2,1.1,0.5s0.5,0.7,0.5,1.1v3.8c0,0.4-0.2,0.8-0.5,1.1c-0.3,0.3-0.7,0.5-1.1,0.5h-4.2
		v2.8h-1.3V1.7H31z M31.3,7.1V3.2c0-0.1,0-0.1-0.1-0.2C31.2,3,31.1,3,31,3h-4c-0.1,0-0.1,0-0.2,0.1c-0.1,0.1-0.1,0.1-0.1,0.2v3.8
		c0,0.1,0,0.1,0.1,0.2c0.1,0.1,0.1,0.1,0.2,0.1h4c0.1,0,0.1,0,0.2-0.1C31.3,7.2,31.3,7.2,31.3,7.1z"/>
	<path fill="#FFFFFF" d="M39.5,1.7c0.4,0,0.8,0.2,1.1,0.5C40.9,2.4,41,2.8,41,3.2v5.4h-5.5c-0.4,0-0.8-0.2-1.1-0.5
		c-0.3-0.3-0.5-0.7-0.5-1.1V4.5h5.8V3.2c0-0.1,0-0.1-0.1-0.2C39.6,3,39.5,3,39.5,3h-5.5V1.7H39.5z M39.7,7.3V5.8h-4.5v1.3
		c0,0.1,0,0.1,0.1,0.2c0.1,0.1,0.1,0.1,0.2,0.1H39.7z"/>
	<path fill="#FFFFFF" d="M48.3,1.7h1.5v0.2l-2.8,3.2l2.8,3.4v0.2h-1.5l-2.1-2.5l-2.1,2.5h-1.5V8.5l2.7-3.4l-2.7-3.2V1.7h1.5l2.1,2.4
		L48.3,1.7z"/>
</g>
</svg>
